# xmcd
#
# Track frame offsets: 
#        150
#        26768
#        52968
#        68090
#        82960
#        96948
#        113020
#        130178
#        148518
#        167935
#
# Disc length: 2508 seconds
#
# Revision: 3
# Processed by: cddbd v1.5.2PL0 Copyright (c) Steve Scherf et al.
# Submitted via: ExactAudioCopy v0.99pb5
#
DISCID=8109ca0a
DTITLE=Alice Gomez - Madalyn Blanchett - Marilyn Rife - Flute Dreams
DYEAR=1994
DGENRE=Native American
TTITLE0=Mystic Temple
TTITLE1=Ancient City
TTITLE2=Civilizations Lost
TTITLE3=Pyramid of the Sun
TTITLE4=Where Eagles Pass
TTITLE5=Earth Prayer
TTITLE6=Clouds Dancing
TTITLE7=Aztlan
TTITLE8=Teotihuacan
TTITLE9=Sierra Madre
EXTD=Madalyn Blanchett - Alto recorder, Sopranino Recorder and Soprano r
EXTD=ecorder\nAlice gomez - Guitar, percussion and synthesized bass, h
EXTD=arp, voices and wind effects\nMarilyn rife - Marimba, synthesized
EXTD=bass, percussion
EXTT0=
EXTT1=
EXTT2=
EXTT3=
EXTT4=
EXTT5=
EXTT6=
EXTT7=
EXTT8=
EXTT9=
PLAYORDER=
